# xmcd
#
# Track frame offsets:
#	150
#	13682
#	23542
#	45126
#	60956
#	80437
#	98989
#	117086
#	127254
#	144354
#	160609
#	173880
#	193112
#
# Disc length: 2732 seconds
#
# Revision: 0
# Processed by: cddbd v1.5.2PL0 Copyright (c) Steve Scherf et al.
# Submitted via: EasyCDDAExtractor 2010.6.0.0
#
DISCID=990aaa0d
DTITLE=VLADUT ROMAN - Pă ulita dorului
DYEAR=2009
DGENRE=Folclor   =Maramures=
TTITLE0=n sus
TTITLE1=Ma graie' lumea de rau
TTITLE2=n sat
TTITLE3=Pa ulita dorului
TTITLE4=Hai mandra la noi desara
TTITLE5=ar si inima de piatra
TTITLE6=uai' dusa
TTITLE7=Haida mandra la izvor
TTITLE8=am beteag de murit
TTITLE9=Gre'ai dragostea pa lume
TTITLE10=ai fost lele-orecand
TTITLE11=ar plange inima
TTITLE12=i jocu barbatesc
EXTD=
EXTT0=
EXTT1=
EXTT2=
EXTT3=
EXTT4=
EXTT5=
EXTT6=
EXTT7=
EXTT8=
EXTT9=
EXTT10=
EXTT11=
EXTT12=
PLAYORDER=
